<?xml version="1.0" encoding="utf-8"?>
<svg enable-background="new 0 0 1200 675.105" height="675.105" viewBox="0 0 1200 675.105" width="1200" xmlns="http://www.w3.org/2000/svg">
   <g transform="matrix(1.6877637 0 0 1.6877637 -466.93841 -523.27592)">
      <rect fill="#c20201" height="400" width="711" x="276.661" y="310.041"/>
      <g transform="matrix(.0576175 -.659884 -.659884 -.0576175 935.53 782.9735)">
         <path d="m620.234 494.333c0 138.072-111.929 250-250 250-138.071 0-250.001-111.929-250-250 0-138.071 111.93-250 250-250 138.073.001 250.001 111.93 250 250z"/>
         <path d="m370.233 499.332c.001 69.036-55.964 125.001-124.999 124.999-69.035.001-125.001-55.964-125-125 0-69.035 55.964-125.001 125-124.999 69.036.002 125 55.966 124.999 125z" fill="#fff"/>
         <path d="m619.955 497.425c-.045 137.505-111.131 249.162-248.634 249.913-137.503.752-249.801-109.683-251.351-247.18l249.984-2.815z" fill="#fff"/>
         <path d="m620.234 499.332c0 69.036-55.964 125-125 125-69.037-.001-125.001-55.966-125-125.001 0-69.035 55.966-124.999 125.001-125 69.035.003 124.999 55.968 124.999 125.001z"/>
      </g>
   </g>
</svg>
